<svg width="230" height="230" viewBox="0 0 230 230" fill="none" xmlns="http://www.w3.org/2000/svg">
<g id="Centro  logo 02-01 (1) 1">
<path id="Vector" d="M109.351 12.1533C109.351 12.1533 108.587 12.2453 107.704 12.3005C105.312 12.4753 104.245 12.5765 102.175 12.8249C100.97 12.9629 98.8628 13.2757 98.0992 13.4137C97.8508 13.4597 97.3724 13.5425 97.0412 13.6069C94.7688 14.0117 94.0788 14.1405 93.674 14.2325C93.4256 14.2969 93.0208 14.3797 92.7724 14.4349C92.524 14.4993 92.156 14.5729 91.972 14.6281C91.788 14.6833 90.776 14.9317 89.7456 15.1709C88.7152 15.4193 87.6756 15.6861 87.4364 15.7597C87.1972 15.8333 86.8108 15.9529 86.59 16.0081C84.3084 16.6613 79.6808 18.1885 78.5952 18.6669C78.4572 18.7313 78.2548 18.8049 78.1444 18.8509C76.3044 19.5685 75.6328 19.8353 75.0992 20.0745C74.7588 20.2217 74.446 20.3597 74.4276 20.3597C74.4092 20.3597 74.0872 20.4885 73.7192 20.6633C73.3604 20.8197 73.0476 20.9669 73.0108 20.9669C72.8176 20.9669 65.982 24.3893 65.568 24.6837C65.522 24.7205 65.2184 24.8953 64.9148 25.0517C64.1144 25.4933 63.7188 25.7141 62.9552 26.1741C62.5872 26.4041 62.2652 26.5881 62.2376 26.5881C62.21 26.5881 61.6948 26.9101 61.0692 27.3057C60.4436 27.7013 59.7812 28.1061 59.5972 28.2073C59.1648 28.4557 56.8188 30.0197 56.7636 30.1117C56.736 30.1485 56.3496 30.4245 55.908 30.7189C55.4664 31.0133 54.942 31.3813 54.7488 31.5193C54.5556 31.6665 53.9484 32.1265 53.3872 32.5313C51.8508 33.6721 48.9804 35.9721 47.8028 37.0025C45.1716 39.3393 44.3068 40.1397 42.3196 42.1177C39.7252 44.7213 37.2872 47.3893 35.6312 49.4593C35.2816 49.9009 34.9596 50.2873 34.9228 50.3149C34.886 50.3425 34.748 50.5265 34.6008 50.7381C34.4536 50.9405 34.2696 51.1613 34.196 51.2441C33.9844 51.4649 32.08 53.9765 31.0864 55.3565C30.3228 56.4145 27.2224 61.1433 26.9096 61.7321C26.8452 61.8425 26.5232 62.3853 26.192 62.9465C22.236 69.5337 18.3352 78.5957 16.1824 86.1673C16.118 86.3881 16.0076 86.7745 15.934 87.0229C15.796 87.4553 15.0876 90.2153 14.876 91.1445C14.83 91.3929 14.738 91.7609 14.692 91.9449C14.554 92.5337 13.9192 95.6801 13.7996 96.4161C13.726 96.8025 13.6432 97.2993 13.588 97.5201C13.5328 97.7409 13.45 98.2653 13.3856 98.6793C13.3212 99.0933 13.2384 99.6821 13.1832 99.9857C13.0268 100.952 12.7048 103.804 12.576 105.266C12.5116 106.039 12.4288 106.987 12.3828 107.382C12.3368 107.769 12.2908 108.744 12.2816 109.526C12.2724 110.317 12.2172 111.081 12.162 111.228C12.0424 111.55 12.0516 118.468 12.1712 118.698C12.2172 118.79 12.2724 119.49 12.2816 120.272C12.2908 121.035 12.346 122.047 12.3828 122.526C12.4288 122.995 12.5116 123.942 12.576 124.642C12.7324 126.371 13.1188 129.683 13.22 130.125C13.2384 130.235 13.3212 130.668 13.3764 131.082C13.5236 132.075 13.6524 132.738 14.1768 135.507C14.508 137.218 14.6092 137.66 14.9772 139.095C15.0232 139.306 15.2072 140.042 15.382 140.732C16.1732 143.897 18.1604 150.107 18.9148 151.763C19.016 152.002 19.108 152.223 19.108 152.269C19.108 152.352 19.844 154.174 20.12 154.781C20.2212 155.02 20.3132 155.232 20.3132 155.259C20.3132 155.287 20.4696 155.655 20.6628 156.078C20.856 156.492 21.0124 156.851 21.0124 156.869C21.0124 157.016 23.5884 162.242 24.352 163.659C25.2076 165.25 25.9896 166.612 26.9832 168.231C27.4156 168.949 27.8296 169.63 27.8848 169.74C27.94 169.85 28.078 170.053 28.17 170.191C28.2712 170.329 28.722 171.01 29.182 171.7C30.5712 173.788 33.2392 177.496 33.9292 178.305C33.9752 178.37 34.3248 178.802 34.6836 179.253C36.91 182.05 39.0628 184.432 42.2736 187.643C44.9968 190.376 45.9628 191.286 48.3088 193.274C49.7348 194.497 50.02 194.736 50.9308 195.426C51.216 195.647 51.5012 195.877 51.584 195.96C51.8324 196.199 54.9052 198.481 56 199.235C58.7048 201.103 61.6764 202.998 63.6912 204.13C64.2432 204.442 65.522 205.16 66.3408 205.611C67.7116 206.365 71.7596 208.343 73.296 209.015C73.71 209.199 74.2528 209.429 74.5012 209.539C74.7496 209.65 75.09 209.797 75.2556 209.87C77.6384 210.928 83.1124 212.851 86.3232 213.762C86.544 213.826 86.9304 213.937 87.1788 214.01C87.6112 214.148 90.3712 214.857 91.3004 215.068C91.5488 215.114 91.9168 215.206 92.1008 215.252C92.6896 215.4 95.8176 216.016 96.6272 216.154C97.0412 216.218 97.5104 216.31 97.676 216.366C97.8416 216.421 98.0992 216.458 98.2648 216.458C98.4212 216.458 98.7248 216.494 98.9272 216.55C99.3688 216.66 100.362 216.807 102.101 217.019C105.229 217.387 107.272 217.552 109.59 217.626C110.501 217.644 111.485 217.718 111.752 217.773C112.525 217.93 118.505 217.801 121.909 217.562C125.506 217.304 128.202 217.01 130.41 216.66C130.768 216.596 131.357 216.504 131.716 216.448C132.075 216.384 132.599 216.301 132.875 216.255C133.16 216.209 133.648 216.117 133.979 216.062C135.092 215.869 138.506 215.124 139.508 214.848C139.729 214.802 140.29 214.654 140.769 214.553C141.238 214.443 142.259 214.167 143.032 213.937C143.805 213.707 144.688 213.458 144.992 213.366C145.295 213.274 145.746 213.155 145.994 213.072C146.859 212.833 151.505 211.168 152.177 210.873C152.352 210.8 152.894 210.579 153.382 210.395C156.188 209.309 160.3 207.396 163.392 205.749C164.404 205.197 167.292 203.55 169.123 202.446C169.592 202.17 173.318 199.714 174.202 199.088C176.318 197.616 179.556 195.123 181.396 193.55C181.81 193.191 182.288 192.786 182.454 192.648C185.039 190.449 188.931 186.594 191.709 183.476C195.334 179.391 197.846 176.143 200.753 171.755C202.906 168.507 203.66 167.265 205.408 164.064C207.92 159.473 209.925 155.011 211.977 149.426C212.253 148.7 213.338 145.351 213.633 144.293C214.102 142.692 214.222 142.269 214.433 141.422C214.525 141.064 214.636 140.594 214.682 140.383C214.774 140.042 214.82 139.849 215.077 138.828C215.142 138.626 215.224 138.248 215.28 137.972C215.344 137.715 215.427 137.31 215.491 137.071C215.638 136.427 215.97 134.743 216.144 133.731C216.236 133.225 216.356 132.572 216.402 132.268C216.466 131.965 216.54 131.44 216.595 131.109C216.65 130.778 216.733 130.217 216.798 129.849C217 128.671 217.276 126.426 217.405 125.019C217.773 120.805 217.819 119.536 217.773 114.227C217.727 108.486 217.653 107.024 217.23 103.242C216.936 100.574 216.752 99.1669 216.384 97.1613C215.97 94.8797 215.556 92.9109 214.985 90.5189C214.939 90.3257 214.875 90.0773 214.856 89.9577C214.737 89.4517 214.166 87.3357 214.093 87.1057C214.047 86.9677 213.955 86.6549 213.881 86.3973C213.21 84.0421 211.48 78.8717 210.919 77.5929C210.845 77.4181 210.634 76.9121 210.459 76.4337C210.284 75.9553 210.026 75.3297 209.888 75.0261C209.76 74.7225 209.585 74.3361 209.52 74.1705C208.886 72.7077 208.591 72.0453 208.297 71.4013C207.855 70.4353 206.052 66.8565 205.748 66.3229C205.62 66.1021 205.334 65.5777 205.114 65.1637C204.893 64.7497 204.635 64.2897 204.525 64.1333C204.424 63.9953 204.341 63.8389 204.341 63.8113C204.341 63.7377 202.694 60.9869 202.068 60.0117C201.176 58.6133 199.676 56.3593 199.364 55.9453C199.207 55.7153 198.858 55.2369 198.609 54.8873C197.533 53.3693 194.083 48.9257 193.779 48.6589C193.752 48.6313 193.476 48.3185 193.172 47.9505C192.868 47.6009 192.436 47.0949 192.206 46.8465C191.985 46.5981 191.369 45.9173 190.844 45.3377C189.63 43.9945 185.867 40.2317 184.515 39.0081C183.935 38.4837 183.254 37.8673 183.006 37.6465C182.758 37.4165 182.261 36.9841 181.902 36.6805C181.552 36.3769 181.194 36.0733 181.138 36.0273C180.688 35.6133 177.385 33.0005 176.575 32.3933C176.272 32.1725 175.839 31.8597 175.618 31.6849C174.662 30.9673 169.878 27.7197 169.786 27.7197C169.758 27.7197 169.464 27.5449 169.151 27.3333C168.838 27.1125 168.534 26.9193 168.479 26.9009C168.433 26.8825 167.854 26.5513 167.219 26.1649C165.958 25.4105 165.6 25.1989 164.606 24.6745C164.247 24.4813 163.769 24.2237 163.548 24.0949C163.033 23.8005 158.792 21.6845 158.12 21.3809C157.844 21.2613 157.366 21.0497 157.062 20.9117C155.553 20.2217 151.772 18.6669 151.606 18.6669C151.56 18.6669 151.33 18.5749 151.091 18.4645C150.861 18.3633 150.18 18.1057 149.564 17.9033C148.957 17.7009 148.331 17.4801 148.156 17.4065C147.853 17.2777 145.884 16.6521 144.486 16.2381C144.072 16.1185 143.483 15.9345 143.179 15.8425C142.876 15.7413 141.68 15.4285 140.511 15.1341C139.352 14.8489 138.239 14.5821 138.046 14.5269C137.135 14.2969 135.451 13.9473 133.869 13.6713C133.372 13.5793 132.746 13.4689 132.461 13.4137C131.983 13.3217 131.32 13.2205 130.051 13.0181C128.956 12.8433 125.258 12.4385 123.813 12.3281C123.04 12.2545 122.001 12.1809 121.504 12.1257C120.612 12.0429 109.351 11.9877 109.277 12.0521L109.351 12.1533Z" fill="#FEFFFF"/>
<path id="Vector_2" d="M109.351 12.1532C109.351 12.1532 108.587 12.2452 107.704 12.3004C105.312 12.4752 104.245 12.5764 102.175 12.8248C100.97 12.9628 98.8628 13.2756 98.0992 13.4136C97.8508 13.4596 97.3724 13.5424 97.0412 13.6068C94.7688 14.0116 94.0788 14.1404 93.674 14.2324C93.4256 14.2968 93.0208 14.3796 92.7724 14.4348C92.524 14.4992 92.156 14.5728 91.972 14.628C91.788 14.6832 90.776 14.9316 89.7456 15.1708C88.7152 15.4192 87.6756 15.686 87.4364 15.7596C87.1972 15.8332 86.8108 15.9528 86.59 16.008C84.3084 16.6612 79.6808 18.1884 78.5952 18.6668C78.4572 18.7312 78.2548 18.8048 78.1444 18.8508C76.3044 19.5684 75.6328 19.8352 75.0992 20.0744C74.7588 20.2216 74.446 20.3596 74.4276 20.3596C74.4092 20.3596 74.0872 20.4884 73.7192 20.6632C73.3604 20.8196 73.0476 20.9668 73.0108 20.9668C72.8176 20.9668 65.982 24.3892 65.568 24.6836C65.522 24.7204 65.2184 24.8952 64.9148 25.0516C64.1144 25.4932 63.7188 25.714 62.9552 26.174C62.5872 26.404 62.2652 26.588 62.2376 26.588C62.21 26.588 61.6948 26.91 61.0692 27.3056C60.4436 27.7012 59.7812 28.106 59.5972 28.2072C59.1648 28.4556 56.8188 30.0196 56.7636 30.1116C56.736 30.1484 56.3496 30.4244 55.908 30.7188C55.4664 31.0132 54.942 31.3812 54.7488 31.5192C54.5556 31.6664 53.9484 32.1264 53.3872 32.5312C52.0532 33.5156 48.502 36.3492 48.1064 36.7448C48.0788 36.7724 47.674 37.1404 47.2048 37.5452C43.12 41.124 38.5016 45.8896 35.6404 49.4592C35.2908 49.9008 34.9688 50.2872 34.932 50.3148C34.8952 50.3424 34.7572 50.5264 34.61 50.738C34.4628 50.9404 34.2788 51.1612 34.2052 51.244C33.9936 51.4648 32.0892 53.9764 31.0956 55.3564C30.332 56.4144 27.2316 61.1432 26.9188 61.732C26.8544 61.8424 26.5324 62.3852 26.2012 62.9464C22.8432 68.5492 18.9884 77.1052 17.1208 83.1496C16.6148 84.7596 16.302 85.7808 16.1916 86.1672C16.1272 86.388 16.0168 86.7744 15.9432 87.0136C15.8696 87.2436 15.5568 88.4764 15.2624 89.7276C14.9496 90.9788 14.6552 92.1656 14.6092 92.3496C14.4988 92.7176 14.002 95.2568 13.818 96.4252C13.7444 96.8116 13.6616 97.3268 13.6064 97.5844C13.5512 97.842 13.4684 98.348 13.404 98.7436C13.3396 99.13 13.2568 99.7004 13.2016 100.004C13.0544 100.933 12.7232 103.794 12.5944 105.285C12.53 106.058 12.4472 107.005 12.4012 107.401C12.3552 107.787 12.3092 108.762 12.3 109.544C12.2908 110.336 12.2356 111.099 12.1804 111.246C12.0608 111.568 12.07 118.487 12.1896 118.717C12.2356 118.809 12.2908 119.508 12.3 120.29C12.3092 121.054 12.3644 122.066 12.4012 122.544C12.4472 123.013 12.53 123.961 12.5944 124.66C12.806 127.024 13.0636 129.085 13.3948 131.118C13.7444 133.198 13.6892 132.848 14.1952 135.525C14.5264 137.236 14.6276 137.678 14.9956 139.113C15.0416 139.325 15.2256 140.061 15.4004 140.751C16.1916 143.916 18.1788 150.126 18.9332 151.782C19.0344 152.021 19.1264 152.242 19.1264 152.288C19.1264 152.37 19.8624 154.192 20.1384 154.799C20.2396 155.038 20.3316 155.25 20.3316 155.278C20.3316 155.305 20.488 155.673 20.6812 156.096C20.8744 156.51 21.0308 156.869 21.0308 156.888C21.0308 157.035 23.6068 162.26 24.3704 163.677C25.226 165.269 26.008 166.63 27.0016 168.25C27.434 168.967 27.848 169.648 27.9032 169.758C27.9584 169.869 28.0964 170.071 28.1884 170.209C28.2896 170.347 28.7404 171.028 29.2004 171.718C30.5896 173.806 33.2576 177.514 33.9476 178.324C33.9936 178.388 34.3432 178.82 34.702 179.271C36.9284 182.068 39.0812 184.451 42.292 187.662C45.0152 190.394 45.9812 191.305 48.3272 193.292C49.7532 194.516 50.0384 194.755 50.9492 195.445C51.2344 195.666 51.5196 195.896 51.6024 195.978C51.8508 196.218 54.9236 198.499 56.0184 199.254C58.7232 201.121 61.6948 203.016 63.7096 204.148C64.2616 204.461 65.5404 205.178 66.3592 205.629C67.73 206.384 71.778 208.362 73.3144 209.033C73.7284 209.217 74.2712 209.447 74.5196 209.567C77.252 210.79 82.8272 212.778 86.3416 213.78C86.5624 213.845 86.9488 213.955 87.1972 214.029C87.6296 214.167 90.3896 214.875 91.3188 215.087C91.5672 215.133 91.9352 215.225 92.1192 215.271C92.708 215.418 95.836 216.034 96.6456 216.172C97.0596 216.237 97.5288 216.329 97.6944 216.384C97.86 216.439 98.1176 216.476 98.2832 216.476C98.4396 216.476 98.7432 216.513 98.9456 216.568C100.27 216.908 105.938 217.506 109.167 217.635C109.829 217.663 111.366 217.736 112.589 217.792C116.95 218.012 125.497 217.47 130.437 216.678C130.796 216.614 131.385 216.522 131.744 216.467C132.102 216.402 132.627 216.32 132.903 216.274C133.188 216.228 133.676 216.136 134.007 216.08C135.12 215.887 138.533 215.142 139.536 214.866C139.757 214.82 140.318 214.673 140.796 214.572C141.266 214.461 142.287 214.185 143.06 213.955C143.832 213.725 144.716 213.477 145.019 213.385C145.323 213.293 145.774 213.173 146.022 213.09C146.887 212.851 151.533 211.186 152.204 210.892C152.379 210.818 152.922 210.597 153.41 210.413C156.216 209.328 160.328 207.414 163.419 205.767C164.431 205.215 167.32 203.568 169.151 202.464C169.62 202.188 173.346 199.732 174.229 199.106C176.345 197.634 179.584 195.141 181.424 193.568C181.838 193.209 182.316 192.804 182.482 192.666C185.067 190.468 188.958 186.613 191.737 183.494C195.362 179.409 197.873 176.162 200.78 171.773C202.933 168.526 203.688 167.284 205.436 164.082C207.947 159.491 209.953 155.029 212.004 149.445C212.28 148.718 213.366 145.369 213.66 144.311C214.13 142.71 214.249 142.287 214.461 141.441C214.553 141.082 214.663 140.613 214.709 140.401C214.801 140.061 214.847 139.868 215.105 138.846C215.169 138.644 215.252 138.267 215.307 137.991C215.372 137.733 215.454 137.328 215.519 137.089C215.666 136.445 215.997 134.762 216.172 133.75C216.264 133.244 216.384 132.59 216.43 132.287C216.494 131.983 216.568 131.459 216.623 131.128C216.678 130.796 216.761 130.235 216.825 129.867C217.166 127.834 217.396 125.718 217.681 121.79C217.938 118.248 217.819 109.075 217.478 105.322C216.982 100.068 216.273 95.7812 215.013 90.5372C214.967 90.344 214.902 90.0956 214.884 89.976C214.764 89.47 214.194 87.354 214.12 87.124C214.074 86.986 213.982 86.6732 213.909 86.4156C213.237 84.0604 211.508 78.89 210.946 77.6112C210.873 77.4364 210.661 76.9304 210.486 76.452C210.312 75.9736 210.054 75.348 209.916 75.0444C209.787 74.7408 209.612 74.3544 209.548 74.1888C208.913 72.726 208.619 72.0636 208.324 71.4196C207.883 70.4536 206.08 66.8748 205.776 66.3412C205.647 66.1204 205.362 65.596 205.141 65.182C204.92 64.768 204.663 64.308 204.552 64.1516C204.451 64.0136 204.368 63.8572 204.368 63.8296C204.368 63.756 202.722 61.0052 202.096 60.03C201.204 58.6316 199.704 56.3776 199.391 55.9636C199.235 55.7336 198.885 55.2552 198.637 54.9056C197.56 53.3876 194.11 48.944 193.807 48.6772C193.779 48.6496 193.503 48.3368 193.2 47.9688C192.896 47.6192 192.464 47.1132 192.234 46.8648C192.013 46.6164 191.396 45.9356 190.872 45.356C189.658 44.0128 185.895 40.25 184.542 39.0264C183.963 38.502 183.282 37.8856 183.034 37.6648C182.785 37.4348 182.288 37.0024 181.93 36.6988C181.58 36.3952 181.221 36.0916 181.166 36.0456C180.715 35.6316 177.412 33.0188 176.603 32.4116C176.299 32.1908 175.867 31.878 175.646 31.7032C174.689 30.9856 169.905 27.738 169.813 27.738C169.786 27.738 169.491 27.5632 169.178 27.3516C168.866 27.1308 168.562 26.9376 168.507 26.9192C168.461 26.9008 167.881 26.5696 167.246 26.1832C165.986 25.4288 165.627 25.2172 164.634 24.6928C164.275 24.4996 163.796 24.242 163.576 24.1132C163.06 23.8188 158.819 21.7028 158.148 21.3992C157.872 21.2796 157.393 21.068 157.09 20.93C155.581 20.24 151.8 18.6852 151.634 18.6852C151.588 18.6852 151.358 18.5932 151.119 18.4828C150.456 18.1792 146.372 16.7992 144.513 16.2564C144.099 16.1368 143.51 15.9528 143.207 15.8608C142.903 15.7596 141.707 15.4468 140.539 15.1524C139.38 14.8672 138.266 14.6004 138.073 14.5452C137.162 14.3152 135.479 13.9656 133.896 13.6896C133.4 13.5976 132.774 13.4872 132.489 13.432C131.983 13.34 131.256 13.2204 130.023 13.0364C128.827 12.8524 125.267 12.4568 123.841 12.3464C123.068 12.2728 122.028 12.1992 121.532 12.144C120.639 12.0612 109.378 12.006 109.305 12.0704L109.351 12.1532ZM169.05 49.9284C173.558 50.0296 174.984 50.1032 179.004 50.4436C180.329 50.554 181.828 50.6644 182.325 50.692C184.331 50.8116 184.303 50.8116 177.596 51.7868C167.513 53.2588 163.493 53.958 155.875 55.6048C136.647 59.7724 119.802 65.2188 104.696 72.174C100.85 73.9312 91.8156 78.5128 91.4476 78.8808C91.374 78.9452 91.466 79.4052 92.5884 84.6768C96.71 104.162 101.899 119.986 108.67 133.805C110.593 137.715 113.012 142.223 114.264 144.192L114.503 144.56L119.554 144.661H124.65V145.167H119.839C117.226 145.314 115.064 145.36 115.046 145.388C114.935 145.498 117.419 149.27 119.14 151.579C124.209 158.378 129.324 162.923 135.359 165.977C138.515 167.578 140.971 168.13 143.86 167.891C147.135 167.606 150.263 166.584 155.075 164.22C160.834 161.377 165.968 157.642 170.963 152.656C174.33 149.298 176.603 146.574 180.485 141.257C180.899 140.705 180.982 140.65 181.148 140.861C181.276 141.008 181.341 140.889 179.933 143.446C178.213 146.584 177.817 147.237 175.462 150.889C174.606 152.205 172.73 154.882 171.276 156.823C165.784 164.238 159.509 170.816 152.812 176.198C148.423 179.731 144.311 182.427 140.3 184.405C138.119 185.472 137.218 185.831 135.764 186.199C132.774 186.953 130.253 186.769 127.263 185.61C121.863 183.512 115.027 176.824 110.133 168.884C106.618 163.199 103.095 155.912 100.05 148.083L99.01 145.415L97.0228 145.342C86.9028 144.955 81.438 144.458 74.492 143.299C61.5292 141.119 49.1276 136.675 41.2708 131.367C38.2808 129.352 35.6128 126.868 33.5612 124.237C31.528 121.624 29.9548 118.257 29.2832 115.083C28.9704 113.611 28.952 109.572 29.2464 107.944C30.6816 99.8752 36.7904 91.356 46.5516 83.8028C55.5216 76.8568 67.592 70.2328 80.0948 65.3936C94.0788 59.984 109.185 55.8164 124.181 53.2312C135.433 51.29 147.052 50.1492 158.35 49.91C163.447 49.7904 164.376 49.7904 169.059 49.9008L169.05 49.9284ZM84.3912 83.0484C77.942 87.1516 73.158 90.9328 68.466 95.634C65.3656 98.7436 63.5164 100.942 61.75 103.629C58.484 108.578 56.9108 113.657 57.2512 118.165C57.6744 123.666 60.3608 128.303 65.3012 132.048C72.1368 137.236 81.0332 140.53 94.1156 142.72C96.6272 143.134 98.0716 143.327 98.1452 143.244C98.1728 143.216 97.7956 141.956 97.2988 140.438C93.444 128.791 90.1504 114.457 88.1908 100.832C87.2524 94.3276 86.82 89.0376 86.82 84.0604C86.82 82.7264 86.7832 81.6224 86.7372 81.6224C86.6912 81.6224 85.6332 82.2756 84.382 83.0576L84.3912 83.0484Z" fill="#EA9A7A"/>
<path id="Vector_3" d="M109.765 12.19C108.265 12.2636 103.941 12.6408 102.074 12.8708C82.8548 15.2536 64.234 23.3588 49.2748 35.8616C33.8832 48.6956 22.6868 65.4672 16.7804 84.4836C14.7932 90.896 13.3028 98.2744 12.714 104.696C12.6496 105.358 12.5668 106.306 12.5116 106.812C12.2816 109.011 12.1804 114.761 12.2908 118.505C12.4104 122.296 12.4472 122.746 12.8704 126.675C15.6488 151.938 27.986 175.453 47.3612 192.39C59.7076 203.191 74.2344 210.8 90.0584 214.728C95.7624 216.145 100.096 216.862 106.499 217.46C108.109 217.608 109.461 217.644 115.147 217.644C121.752 217.644 121.946 217.635 124.752 217.359C137.503 216.108 149.334 212.759 160.604 207.184C167.421 203.808 173.3 200.082 179.252 195.362C183.963 191.618 189.05 186.696 193.255 181.783C203.099 170.283 210.275 156.823 214.258 142.361C215.786 136.813 217.074 129.702 217.524 124.255C218.049 118.119 217.984 110.115 217.386 104.07C216.025 90.62 211.627 76.7556 204.865 64.7128C190.872 39.7808 167.081 21.6568 139.545 14.9868C133.455 13.5056 127.585 12.6408 120.842 12.2084C119.37 12.1164 111.531 12.098 109.774 12.1808L109.765 12.19ZM172.021 49.9376C173.493 50.002 176.115 50.1584 177.854 50.2872C184.147 50.784 184 50.7656 183.88 50.876C183.843 50.9128 178.894 51.6764 175.996 52.0904C167.863 53.2496 161.542 54.3904 154.072 56.0648C134.872 60.3704 118.873 65.6512 103.472 72.7904C100.51 74.1704 91.8616 78.5772 91.5304 78.8808C91.4568 78.9544 92.0916 82.2112 92.9656 86.2316C97.9244 108.965 104.226 126.463 113.114 142.122L114.438 144.468H119.535C123.307 144.468 124.632 144.495 124.669 144.587C124.687 144.652 124.687 144.817 124.669 144.974C124.632 145.222 124.577 145.259 124.117 145.314C123.822 145.342 121.679 145.378 119.351 145.378C117.024 145.378 115.101 145.397 115.101 145.443C115.101 145.535 116.6 147.899 117.392 149.049C121.43 154.937 125.957 159.804 130.235 162.849C132.71 164.606 136.104 166.474 137.981 167.09C142.839 168.7 147.669 167.863 155.13 164.146C161.046 161.193 165.949 157.596 171.074 152.472C174.349 149.206 177.072 145.967 180.163 141.634C180.669 140.944 180.844 140.76 181.01 140.778C181.46 140.843 181.424 140.935 178.884 145.489C176.106 150.475 170.742 158.019 166.253 163.245C158.746 171.966 149.684 179.556 141.854 183.706C137.687 185.895 135.663 186.585 132.958 186.705C130.732 186.797 128.652 186.355 126.408 185.316C122.341 183.457 117.309 178.94 113.224 173.512C108.698 167.495 104.199 158.856 100.013 148.12C99.4608 146.712 99.0008 145.544 98.964 145.526C98.918 145.48 97.86 145.424 95.192 145.351C76.5344 144.854 60.3148 141.321 47.2692 134.89C42.4116 132.498 38.9248 130.06 35.898 126.978C31.9052 122.903 29.688 118.662 29.0624 113.896C28.8324 112.139 28.9152 109.517 29.2648 107.686C29.8904 104.438 31.2152 101.182 33.23 97.98C37.3056 91.494 42.982 85.9832 51.6852 80.086C63.7924 71.8704 77.436 65.6236 95.2012 60.1588C115.046 54.05 134.816 50.7288 155.7 49.956C158.939 49.8364 169.059 49.8364 172.04 49.9468L172.021 49.9376ZM84.5568 83.0024C73.9676 89.7644 65.7888 97.29 61.2256 104.512C59.956 106.527 58.4472 109.949 57.9136 112.084C56.7728 116.546 57.1776 120.888 59.082 124.688C61.2256 128.956 64.786 132.222 70.8856 135.544C75.826 138.23 82.2292 140.355 90.086 141.91C93.306 142.545 97.9796 143.308 98.09 143.207C98.1084 143.18 97.9888 142.729 97.8048 142.177C94.686 132.802 92.5976 124.853 90.546 114.595C88.0252 101.964 86.9488 93.5456 86.7648 84.8976C86.728 83.1496 86.6636 81.7052 86.636 81.7052C86.6084 81.7052 85.67 82.2848 84.5568 82.9932V83.0024Z" fill="#F73200"/>
<path id="Vector_4" d="M118.689 12.1899C118.919 12.2083 119.278 12.2083 119.489 12.1899C119.692 12.1715 119.498 12.1531 119.057 12.1531C118.615 12.1531 118.44 12.1715 118.689 12.1899ZM123.666 12.4935C123.758 12.5119 123.914 12.5119 124.016 12.4935C124.108 12.4659 124.025 12.4475 123.832 12.4475C123.638 12.4475 123.556 12.4659 123.657 12.4935H123.666ZM125.883 12.6959C125.975 12.7143 126.113 12.7143 126.187 12.6959C126.251 12.6683 126.178 12.6499 126.003 12.6499C125.846 12.6499 125.782 12.6683 125.883 12.6959ZM127.843 12.8983C127.916 12.9259 127.999 12.9167 128.036 12.8891C128.073 12.8615 128.018 12.8247 127.907 12.8431C127.797 12.8431 127.769 12.8707 127.843 12.9075V12.8983ZM129.25 13.1007C129.324 13.1283 129.407 13.1191 129.444 13.0915C129.48 13.0639 129.425 13.0271 129.315 13.0455C129.204 13.0455 129.177 13.0731 129.25 13.1099V13.1007ZM130.557 13.3031C130.621 13.3215 130.741 13.3215 130.805 13.3031C130.87 13.2755 130.814 13.2571 130.676 13.2571C130.538 13.2571 130.483 13.2755 130.557 13.3031ZM131.762 13.5055C131.826 13.5239 131.946 13.5239 132.01 13.5055C132.075 13.4779 132.02 13.4595 131.882 13.4595C131.744 13.4595 131.688 13.4779 131.762 13.5055ZM132.967 13.7079C133.032 13.7263 133.151 13.7263 133.216 13.7079C133.28 13.6803 133.225 13.6619 133.087 13.6619C132.949 13.6619 132.894 13.6803 132.967 13.7079ZM134.071 13.9103C134.136 13.9287 134.255 13.9287 134.32 13.9103C134.384 13.8827 134.329 13.8643 134.191 13.8643C134.053 13.8643 133.998 13.8827 134.071 13.9103ZM137.19 14.5175C137.264 14.5451 137.346 14.5359 137.383 14.5083C137.42 14.4807 137.365 14.4439 137.254 14.4623C137.144 14.4623 137.116 14.4899 137.19 14.5267V14.5175ZM137.99 14.7199C138.064 14.7475 138.147 14.7383 138.184 14.7107C138.22 14.6831 138.165 14.6463 138.055 14.6647C137.944 14.6647 137.917 14.6923 137.99 14.7291V14.7199ZM138.892 14.9223C138.966 14.9499 139.048 14.9407 139.085 14.9131C139.122 14.8855 139.067 14.8487 138.956 14.8671C138.846 14.8671 138.818 14.8947 138.892 14.9315V14.9223ZM139.692 15.1247C139.766 15.1523 139.849 15.1431 139.886 15.1155C139.922 15.0879 139.867 15.0511 139.757 15.0695C139.646 15.0695 139.619 15.0971 139.692 15.1339V15.1247ZM160.503 22.7055C160.576 22.7791 160.65 22.8067 160.687 22.7791C160.724 22.7515 160.668 22.6871 160.567 22.6595C160.429 22.5951 160.42 22.6135 160.503 22.7055ZM185.472 40.0383C185.472 40.0383 185.554 40.1395 185.656 40.2131C185.803 40.3419 185.812 40.3327 185.683 40.1763C185.554 40.0199 185.472 39.9647 185.472 40.0475V40.0383ZM181.948 51.2255C181.148 51.3543 179.059 51.6671 177.32 51.9155C169.427 53.0655 165.554 53.7095 160.678 54.6939C139.012 59.0363 120.538 64.8967 103.444 72.8179C100.491 74.1887 91.834 78.6047 91.512 78.9083C91.42 78.9911 92.1376 82.5975 93.0852 86.8663C95.5324 97.9523 98.2188 107.493 101.246 115.984C101.752 117.392 101.908 117.824 102.681 119.903C103.086 120.971 104.585 124.724 104.815 125.239C104.926 125.46 105.1 125.893 105.22 126.187C105.34 126.481 105.524 126.932 105.643 127.181C105.754 127.429 105.901 127.769 105.974 127.944C106.057 128.101 106.296 128.653 106.517 129.131C106.747 129.628 106.931 130.033 106.931 130.06C106.931 130.207 109.967 136.381 110.988 138.303C112.203 140.603 114.162 144.035 114.411 144.283C114.567 144.467 114.816 144.477 119.581 144.486C122.829 144.486 124.604 144.523 124.641 144.587C124.678 144.651 124.687 144.817 124.66 144.983C124.623 145.24 124.577 145.277 124.108 145.332C123.813 145.36 121.67 145.397 119.342 145.397C117.014 145.397 115.092 145.415 115.092 145.443C115.092 145.673 117.714 149.61 119.232 151.634C124.292 158.415 129.37 162.923 135.35 165.959C137.862 167.228 139.343 167.661 141.735 167.808C144.062 167.946 145.81 167.716 148.377 166.943C150.824 166.207 154.826 164.413 157.614 162.803C158.295 162.407 158.884 162.085 158.902 162.085C159.058 162.085 162.435 159.804 164.072 158.571C167.762 155.802 172.132 151.68 174.634 148.607C174.882 148.304 175.112 148.046 175.158 148.028C175.241 147.991 176.345 146.629 176.345 146.565C176.345 146.537 176.502 146.344 176.704 146.133C177.256 145.516 178.48 143.869 178.48 143.722C178.48 143.649 178.516 143.612 178.572 143.639C178.608 143.667 178.654 143.639 178.654 143.575C178.654 143.529 178.792 143.336 178.958 143.152C179.133 142.977 179.262 142.802 179.262 142.756C179.262 142.71 179.372 142.554 179.519 142.416C179.657 142.278 179.74 142.112 179.703 142.029C179.666 141.965 179.666 141.937 179.712 141.983C179.749 142.02 180.034 141.744 180.338 141.358C180.807 140.741 180.908 140.668 181.083 140.751C181.184 140.815 181.276 140.925 181.276 140.999C181.276 141.128 180.605 142.397 178.884 145.47C176.106 150.457 170.742 158.001 166.253 163.226C158.746 171.948 149.684 179.538 141.854 183.687C137.687 185.877 135.663 186.567 132.958 186.686C130.732 186.778 128.652 186.337 126.408 185.297C122.341 183.439 117.309 178.921 113.224 173.493C108.67 167.44 103.932 158.304 99.8656 147.743C99.4424 146.639 99.01 145.663 98.9088 145.571C98.7708 145.452 98.4396 145.415 97.2896 145.397C85.808 145.222 74.0044 143.731 64.5836 141.247C54.0496 138.469 44.316 134.108 38.9984 129.766C38.5384 129.398 38.1428 129.094 38.1152 129.094C38.0324 129.094 40.3416 131.137 40.7004 131.385C41.0316 131.615 41.28 131.919 41.4272 132.259C41.602 132.664 43.1568 134.228 49.6336 140.521C59.6892 150.3 65.3564 155.737 73.3696 163.337C74.952 164.827 76.7276 166.538 77.344 167.118C78.8436 168.553 85.9368 175.195 91.1348 180.035C95.0172 183.641 96.2684 184.8 98.4672 186.824C99.5252 187.79 101.733 189.833 103.398 191.351C107.308 194.939 111.301 198.573 115.064 201.958C116.72 203.458 119.029 205.537 120.198 206.595C121.357 207.644 123.197 209.291 124.273 210.257C125.35 211.213 126.868 212.566 127.64 213.274C129.453 214.903 130.244 215.565 130.833 215.933C131.201 216.163 131.284 216.264 131.192 216.365C131.109 216.467 131.155 216.494 131.403 216.494C131.587 216.494 131.918 216.457 132.148 216.402C132.378 216.347 133.133 216.209 133.832 216.089C140.208 214.976 147.006 212.989 153.649 210.33C160.724 207.487 168.286 203.375 174.229 199.125C174.68 198.803 175.407 198.287 175.839 197.975C178.388 196.162 182.141 193.053 184.929 190.495C186.079 189.437 189.584 185.904 190.633 184.763C193.089 182.077 195.408 179.28 197.404 176.649C199.566 173.779 202.574 169.28 203.954 166.851C204.056 166.658 204.249 166.336 204.368 166.124C204.985 165.075 205.16 164.689 205.095 164.588C205.058 164.514 205.068 164.496 205.132 164.542C205.196 164.569 205.307 164.477 205.38 164.33C205.463 164.174 205.712 163.695 205.942 163.272C206.172 162.84 206.337 162.435 206.291 162.371C206.254 162.306 206.264 162.288 206.328 162.334C206.457 162.417 208.012 159.335 207.91 159.178C207.883 159.132 207.892 159.077 207.947 159.077C208.002 159.077 208.205 158.727 208.407 158.304C208.61 157.872 208.858 157.347 208.968 157.136C209.088 156.924 209.152 156.694 209.116 156.611C209.079 156.529 209.106 156.464 209.162 156.464C209.208 156.464 209.3 156.345 209.364 156.188C209.428 156.032 209.539 155.765 209.622 155.581C209.704 155.397 209.732 155.213 209.695 155.139C209.658 155.066 209.668 155.047 209.723 155.075C209.787 155.112 209.907 154.937 210.008 154.661C210.109 154.403 210.229 154.127 210.293 154.072C210.339 153.999 210.367 153.879 210.33 153.796C210.293 153.713 210.321 153.64 210.367 153.612C210.431 153.594 210.56 153.355 210.652 153.069C210.753 152.793 210.9 152.416 210.983 152.223C211.305 151.505 211.388 151.229 211.305 151.11C211.268 151.036 211.278 151.009 211.333 151.045C211.434 151.119 211.554 150.843 211.968 149.61C212.087 149.251 212.216 148.865 212.271 148.755C212.326 148.644 212.501 148.101 212.685 147.549C212.86 146.997 213.035 146.455 213.081 146.344C213.127 146.234 213.191 146.05 213.21 145.939C213.237 145.829 213.357 145.415 213.486 145.038C213.716 144.302 213.734 144.21 214.093 142.977C214.645 141.027 215.519 137.448 215.813 135.939C215.878 135.635 215.951 135.203 216.006 134.982C216.043 134.761 216.264 133.51 216.503 132.213C217.258 127.861 217.432 126.325 217.819 120.198C217.957 117.971 217.902 109.765 217.727 107.778C217.662 107.088 217.57 105.929 217.506 105.211C217.101 100.225 216.016 94.0607 214.663 88.9547C214.01 86.4983 213.89 86.1395 213.789 86.1947C213.743 86.2315 213.697 86.2039 213.697 86.1487C213.697 86.0935 213.55 85.8635 213.357 85.6703C213.164 85.4771 212.483 84.6307 211.82 83.8211C211.167 83.0207 209.778 81.3371 208.72 80.1043C205.27 76.0287 202.427 72.6707 201.093 71.0791C200.366 70.2143 199.364 69.0275 198.867 68.4479C198.361 67.8683 197.229 66.5251 196.346 65.4855C195.463 64.4459 194.129 62.8635 193.384 61.9711C192.638 61.0787 191.415 59.6343 190.67 58.7511C189.924 57.8679 188.222 55.8715 186.898 54.3259C185.573 52.7711 184.386 51.3819 184.266 51.2255C184.018 50.8943 183.954 50.8943 182.022 51.2163L181.948 51.2255ZM84.5292 83.0299C75.964 88.4947 68.9904 94.4471 64.1788 100.399C62.1456 102.911 60.9864 104.705 59.7444 107.235C58.1344 110.519 57.38 113.279 57.2696 116.389C57.0764 121.329 58.9348 125.911 62.6792 129.738C65.6324 132.756 70.6372 135.829 76.1388 138.018C77.4268 138.533 79.414 139.242 79.5612 139.242C79.644 139.242 80.104 139.38 80.3156 139.472C80.7664 139.656 82.6616 140.208 83.8024 140.484C85.026 140.787 85.44 140.889 86.176 141.073C88.5864 141.698 92.7724 142.489 96.7376 143.078C97.446 143.189 98.0348 143.253 98.0624 143.225C98.0808 143.198 97.9612 142.747 97.7772 142.195C96.0016 136.841 94.6952 132.461 93.26 126.886C93.168 126.527 93.0668 126.215 93.0392 126.178C93.0116 126.141 92.9656 125.975 92.9564 125.782C92.9472 125.598 92.9104 125.423 92.8552 125.377C92.8184 125.35 92.7632 125.157 92.754 124.963C92.7448 124.77 92.6896 124.605 92.6344 124.577C92.5884 124.559 92.5516 124.485 92.5884 124.43C92.6068 124.356 92.432 123.445 92.1744 122.397C91.926 121.339 91.7236 120.409 91.7236 120.308C91.7236 120.216 91.6868 120.133 91.6224 120.133C91.5764 120.133 91.5488 120.069 91.5764 120.005C91.65 119.802 90.868 116.398 90.7852 116.481C90.7392 116.518 90.7208 116.499 90.7668 116.435C90.8588 116.297 90.3252 113.39 90.2332 113.445C90.2056 113.463 90.1596 113.289 90.1596 113.04C90.1504 112.801 90.1136 112.516 90.0676 112.415C90.0216 112.313 89.9848 112.139 89.9756 112.028C89.948 111.504 89.672 110.271 89.5892 110.271C89.5432 110.271 89.5248 110.225 89.5616 110.17C89.6352 110.059 89.1108 106.941 89.0096 106.849C88.982 106.821 88.9452 106.545 88.9268 106.26C88.9176 105.956 88.8624 105.689 88.8256 105.653C88.7888 105.616 88.7428 105.34 88.7244 105.036C88.706 104.733 88.6508 104.466 88.5956 104.457C88.5496 104.438 88.522 104.374 88.5588 104.337C88.5864 104.291 88.4576 103.187 88.2644 101.899C87.3076 95.5971 86.8568 90.5279 86.7372 84.9251C86.7004 83.1587 86.636 81.7051 86.6084 81.7051C86.5808 81.7051 85.6424 82.2847 84.5292 82.9931V83.0299ZM12.3368 109.572C12.3368 109.82 12.3552 109.921 12.3736 109.793C12.392 109.673 12.392 109.471 12.3736 109.342C12.3552 109.222 12.3368 109.323 12.3368 109.572ZM12.3368 120.133C12.3368 120.492 12.3552 120.639 12.3736 120.455C12.392 120.281 12.392 119.986 12.3736 119.802C12.3552 119.627 12.3368 119.775 12.3368 120.133ZM35.392 126.573C35.4932 126.684 35.5944 126.776 35.622 126.776C35.6496 126.776 35.5944 126.684 35.4932 126.573C35.392 126.463 35.2908 126.371 35.2632 126.371C35.2356 126.371 35.2908 126.463 35.392 126.573ZM36.6524 127.834C36.7812 127.972 36.91 128.082 36.9376 128.082C36.9652 128.082 36.8916 127.972 36.7536 127.834C36.6156 127.696 36.496 127.585 36.4684 127.585C36.4408 127.585 36.5144 127.696 36.6524 127.834ZM37.7104 128.791C37.8116 128.901 37.9128 128.993 37.9404 128.993C37.968 128.993 37.9128 128.901 37.8116 128.791C37.7104 128.68 37.6092 128.588 37.5816 128.588C37.554 128.588 37.6092 128.68 37.7104 128.791ZM110.657 217.672C110.887 217.69 111.246 217.69 111.458 217.672C111.66 217.653 111.467 217.635 111.025 217.635C110.584 217.635 110.409 217.653 110.657 217.672ZM118.44 217.672C118.808 217.69 119.443 217.69 119.848 217.672C120.253 217.663 119.949 217.644 119.176 217.644C118.404 217.644 118.072 217.653 118.44 217.672Z" fill="#C92E02"/>
</g>
</svg>
